<svg xmlns="http://www.w3.org/2000/svg" viewBox="0 0 32 32">
  <defs>
    <linearGradient id="g" x1="0" y1="0" x2="1" y2="1">
      <stop offset="0" stop-color="#e7b85a"/>
      <stop offset="1" stop-color="#3f7a4f"/>
    </linearGradient>
  </defs>
  <rect width="32" height="32" rx="8" fill="url(#g)"/>
  <!-- a loaf with a sprout: daily bread that's still alive -->
  <path d="M7 19c0-3.3 2.7-6 6-6h6c3.3 0 6 2.7 6 6v1a2 2 0 0 1-2 2H9a2 2 0 0 1-2-2z" fill="#fff" opacity="0.95"/>
  <path d="M16 13c0-2.2-1.4-3.8-3.4-4.4 0 2 .9 3.3 2 4.1M16 13c0-2.6 1.5-4.4 3.7-5-.1 2.3-1.1 3.9-2.4 4.7" fill="none" stroke="#2f5d3b" stroke-width="1.4" stroke-linecap="round"/>
</svg>
